# xmcd CD database file
#
# Track frame offsets:
#	150
#	15277
#	36397
#	54710
#	96596
#	113506
#	134519
#	150401
#	165393
#	189646
#	210200
#
# Disc length: 3093 seconds
#
# Revision: 0
# Processed by: cddbd v1.5.1PL0 Copyright (c) Steve Scherf et al.
# Submitted via: CDex 1.51
#
DISCID=870c130b
DTITLE=Randy Rogers - Rollercoaster
DYEAR=2004
DGENRE=Country
TTITLE0=Again
TTITLE1=Can't Slow Down
TTITLE2=Down and Out
TTITLE3=I Miss You With Me
TTITLE4=Lay It All On You
TTITLE5=Love Must Follow You Around
TTITLE6=Somebody Take Me Home
TTITLE7=Ten Miles Deep
TTITLE8=They Call It The Hill Country
TTITLE9=This Time Around
TTITLE10=Tonight's Not The Night
EXTD=YEAR: 2004
EXTT0=
EXTT1=
EXTT2=
EXTT3=
EXTT4=
EXTT5=
EXTT6=
EXTT7=
EXTT8=
EXTT9=
EXTT10=
PLAYORDER=
